<svg width="1200" height="700" viewBox="0 0 1200 700" xmlns="http://www.w3.org/2000/svg">
  <rect width="1200" height="700" rx="28" fill="#07111f"/>
  <rect x="32" y="32" width="1136" height="636" rx="24" fill="#0d1728" stroke="#23364f" stroke-width="2"/>
  <rect x="60" y="72" width="1080" height="54" rx="14" fill="#14263d"/>
  <circle cx="94" cy="99" r="8" fill="#ff5f57"/>
  <circle cx="122" cy="99" r="8" fill="#febc2e"/>
  <circle cx="150" cy="99" r="8" fill="#28c840"/>
  <rect x="90" y="160" width="420" height="230" rx="18" fill="#101b2d" stroke="#2c4467"/>
  <rect x="120" y="188" width="300" height="14" rx="7" fill="#3e7cff"/>
  <rect x="120" y="220" width="220" height="12" rx="6" fill="#6b8cff"/>
  <rect x="120" y="252" width="260" height="12" rx="6" fill="#4ad7c6"/>
  <rect x="120" y="284" width="180" height="12" rx="6" fill="#86efac"/>
  <rect x="120" y="318" width="140" height="12" rx="6" fill="#f9c74f"/>
  <rect x="560" y="160" width="520" height="320" rx="20" fill="#0f1b2f" stroke="#2e4766"/>
  <text x="596" y="212" fill="#ffffff" font-family="Segoe UI, Arial, sans-serif" font-size="28" font-weight="600">Voice-to-Terminal Assistant</text>
  <rect x="596" y="238" width="200" height="44" rx="22" fill="#1d4ed8"/>
  <text x="640" y="267" fill="#ffffff" font-family="Segoe UI, Arial, sans-serif" font-size="18" font-weight="600">🎤 Listening...</text>
  <rect x="596" y="300" width="360" height="28" rx="14" fill="#14263d"/>
  <text x="612" y="319" fill="#9fd3ff" font-family="Segoe UI, Arial, sans-serif" font-size="16">Heard: “list”</text>
  <rect x="596" y="346" width="420" height="28" rx="14" fill="#14263d"/>
  <text x="612" y="365" fill="#9fd3ff" font-family="Segoe UI, Arial, sans-serif" font-size="16">Will execute: ls -la</text>
  <rect x="596" y="392" width="180" height="38" rx="19" fill="#10b981"/>
  <text x="637" y="419" fill="#ffffff" font-family="Segoe UI, Arial, sans-serif" font-size="16" font-weight="600">✅ Confirmed</text>
  <rect x="90" y="430" width="1020" height="180" rx="18" fill="#101b2d" stroke="#2b4163"/>
  <text x="122" y="478" fill="#7dd3fc" font-family="Segoe UI, Arial, sans-serif" font-size="24" font-weight="600">Why it stands out</text>
  <text x="122" y="520" fill="#dbeafe" font-family="Segoe UI, Arial, sans-serif" font-size="20">• Local-first privacy design</text>
  <text x="122" y="552" fill="#dbeafe" font-family="Segoe UI, Arial, sans-serif" font-size="20">• Safe execution with confirmation prompts</text>
  <text x="456" y="520" fill="#dbeafe" font-family="Segoe UI, Arial, sans-serif" font-size="20">• Modular Python architecture</text>
  <text x="456" y="552" fill="#dbeafe" font-family="Segoe UI, Arial, sans-serif" font-size="20">• Recruiter-friendly portfolio project</text>
</svg>
